/* XPM */
static char * C:\Users\Rachael\Pictures\supplice_icon_xpm[] = {
"16 16 75 1",
" 	c #100102",
".	c #150203",
"+	c #1E0204",
"@	c #270305",
"#	c #2C0405",
"$	c #390507",
"%	c #3F0508",
"&	c #320406",
"*	c #280305",
"=	c #210304",
"-	c #170203",
";	c #230304",
">	c #2A0405",
",	c #3D0508",
"'	c #4E0609",
")	c #58070B",
"!	c #5A070B",
"~	c #6B090D",
"{	c #51070A",
"]	c #54070A",
"^	c #60080C",
"/	c #430608",
"(	c #250305",
"_	c #2F0406",
":	c #763032",
"<	c #F4EAEA",
"[	c #FEFEFE",
"}	c #B8B7B7",
"|	c #3B0508",
"1	c #360507",
"2	c #613132",
"3	c #EDE3E4",
"4	c #FAFAFA",
"5	c #571E1F",
"6	c #470609",
"7	c #E4E4E4",
"8	c #F3F3F3",
"9	c #844B4D",
"0	c #490609",
"a	c #3C0508",
"b	c #EBEBEB",
"c	c #B1B1B1",
"d	c #4A3435",
"e	c #63080C",
"f	c #380507",
"g	c #D7D7D7",
"h	c #998F8F",
"i	c #898080",
"j	c #420608",
"k	c #55070B",
"l	c #66080D",
"m	c #450609",
"n	c #400508",
"o	c #CDCDCD",
"p	c #675C5C",
"q	c #C3C3C3",
"r	c #50070A",
"s	c #402323",
"t	c #A6A6A6",
"u	c #340407",
"v	c #300406",
"w	c #521113",
"x	c #9E9D9D",
"y	c #A9A9A9",
"z	c #200304",
"A	c #7C7373",
"B	c #A3A3A3",
"C	c #2F1C1C",
"D	c #1A0203",
"E	c #1F0204",
"F	c #1C0204",
"G	c #130202",
"H	c #190203",
"I	c #110202",
"J	c #0F0202",
" .+@@#$$$%&@*=- ",
"-;;>,')!~{]^/(&+",
";@_:<[[[[[[[[}|&",
"1&2344444444356$",
"_)788888888890^a",
"1]bbbcddddd20^e%",
"f'777ghhhhhije!|",
"$0hggggggggghklm",
"6^nioooooooooh^n",
"$)0>piiiii}qqq!%",
"1rm_ssssssh}}}0&",
"#6]2ccccccccctu@",
">vwxyyyyyyyyxs(z",
";*ABBBBBBBBhCDE;",
"-;;;;+z;zz+DF--G",
" .F+--++=DH-DDIJ"};
